<?xml version="1.0" encoding="UTF-8"?>
<svg xmlns="http://www.w3.org/2000/svg" width="211" height="50" viewBox="0 0 211 50" fill="none">
  <g clip-path="url(#clip0_3018_20467)">
    <path d="M17.9226 32.9171V32.5895C18.8741 32.5115 19.2485 31.9967 19.0925 30.655L17.6106 17.223L11.4493 33.2291H11.1685L4.77312 17.613L3.41606 31.1231C3.33807 31.8095 3.77482 32.5739 4.53915 32.5739V32.9015H0V32.5739C1.20108 32.5739 1.59104 31.7783 1.68463 30.733L3.24448 15.9281C3.40046 14.5709 2.60494 14.2433 1.9966 14.1653V13.8376H7.56524L12.4632 25.7877L17.0803 13.8376H22.6021V14.1653C21.6818 14.1653 21.2919 15.0389 21.4479 16.2557L23.2105 30.6862C23.2885 31.2479 23.5224 32.5739 24.9263 32.5739V32.9015H17.9226V32.9171Z" fill="#005843"></path>
    <path d="M33.786 32.9171L33.552 31.747C33.0997 32.2619 32.2262 33.3071 29.512 33.3071C26.9539 33.3071 25.1133 31.9342 25.1133 29.5786C25.1133 25.85 29.434 25.5224 32.9281 25.3352V23.7284C32.9281 23.1199 32.7565 21.4039 30.4479 21.4039C28.311 21.4039 26.6731 23.4788 26.5951 23.6036L26.2364 23.5568L26.4391 21.0607C26.8135 20.8111 28.4825 19.8126 31.3683 19.8126C35.3303 19.8126 36.5781 21.6223 36.5781 24.5084V29.1573C36.5781 31.8874 36.8277 32.4959 38.1068 32.6051V32.9327H33.7704L33.786 32.9171ZM32.9437 26.9577C29.4964 26.9577 28.8413 27.7221 28.8413 29.563C28.8413 31.0138 29.5588 31.7314 30.7599 31.7314C31.1187 31.7314 32.9593 31.4506 32.9593 28.8141V26.9421L32.9437 26.9577Z" fill="#005843"></path>
    <path d="M49.3845 32.9171L49.0257 31.1231C48.2926 32.0903 47.5906 33.2759 44.6893 33.2759C40.7117 33.2759 38.8867 29.8594 38.8867 26.5521C38.8867 22.5896 40.8209 19.8127 44.5022 19.8127C46.5456 19.8127 47.9806 20.8423 48.433 21.5755V14.5241C48.433 13.8065 48.0274 12.7612 47.0447 13.0888L46.9667 12.7612L52.0518 11.7472V30.4834C52.0518 31.9343 52.7381 32.6519 53.6272 32.5739V32.9015H49.3689L49.3845 32.9171ZM45.5317 21.4507C42.8487 21.4507 42.6459 24.6644 42.6459 26.3337C42.6459 29.1418 43.3011 31.6379 45.6096 31.6379C47.5438 31.6379 48.7293 29.7034 48.7293 26.5365C48.7293 23.3696 47.575 21.4507 45.5317 21.4507Z" fill="#005843"></path>
    <path d="M63.1278 32.9171L62.8938 31.747C62.4415 32.2619 61.568 33.3071 58.8538 33.3071C56.2957 33.3071 54.4551 31.9342 54.4551 29.5786C54.4551 25.85 58.7758 25.5224 62.2699 25.3352V23.7284C62.2699 23.1199 62.0827 21.4039 59.7897 21.4039C57.6372 21.4039 56.0149 23.4788 55.9369 23.6036L55.5782 23.5568L55.7809 21.0607C56.1709 20.8111 57.8243 19.8126 60.71 19.8126C64.6721 19.8126 65.9199 21.6223 65.9199 24.5084V29.1573C65.9199 31.8874 66.1695 32.4959 67.4486 32.6051V32.9327H63.1122L63.1278 32.9171ZM62.2855 26.9577C58.8382 26.9577 58.1675 27.7221 58.1675 29.563C58.1675 31.0138 58.885 31.7314 60.0861 31.7314C60.4449 31.7314 62.2855 31.4506 62.2855 28.8141V26.9421V26.9577Z" fill="#005843"></path>
    <path d="M73.8893 39.4226C70.3173 39.4226 67.4004 37.7377 67.4004 35.616C67.4004 34.212 68.5547 33.4788 69.2098 33.0108C69.1318 32.964 68.2895 32.4491 68.2895 31.4975C68.2895 29.9843 69.9273 28.3618 70.3641 27.9718C70.0833 27.769 68.1647 26.8797 68.1647 24.0404C68.1647 22.0748 69.8493 19.7815 73.4526 19.7815C74.5757 19.7815 75.3868 19.9531 75.808 20.1403H80.0663V21.6536H77.9449C78.2569 22.0592 78.8652 22.886 78.8652 24.3369C78.8652 26.4273 77.1806 28.7518 73.3278 28.7518C72.3139 28.7518 71.9551 28.5958 71.6744 28.5178C71.3468 28.8766 71.1596 29.329 71.1596 29.5942C71.1596 30.1559 71.7212 30.3431 73.0314 30.3431H75.8703C79.9259 30.3431 80.4719 33.1044 80.4719 34.2744C80.4719 37.5661 77.5394 39.4382 73.9049 39.4382M75.3556 33.7128H72.9066C71.8304 33.7128 70.6293 33.6348 70.6293 33.6348C70.4733 33.8688 70.0989 34.2744 70.0989 35.1948C70.0989 37.4101 72.6571 38.0341 73.6242 38.0341C75.7924 38.0341 77.9605 37.0825 77.9605 35.226C77.9605 34.056 76.5255 33.7128 75.3556 33.7128ZM73.593 21.1231C71.9863 21.1231 71.4404 22.8392 71.4404 24.2589C71.4404 25.6785 71.8459 27.379 73.515 27.379C74.1545 27.379 75.5584 26.9421 75.5584 24.1808C75.5584 22.106 74.7941 21.1231 73.593 21.1231Z" fill="#005843"></path>
    <path d="M89.2391 32.9171L89.0052 31.747C88.5528 32.2619 87.6793 33.3071 84.9652 33.3071C82.407 33.3071 80.5664 31.9342 80.5664 29.5786C80.5664 25.85 84.8872 25.5224 88.3812 25.3352V23.7284C88.3812 23.1199 88.194 21.4039 85.9011 21.4039C83.7485 21.4039 82.1262 23.4788 82.0483 23.6036L81.6895 23.5568L81.8923 21.0607C82.2666 20.8111 83.9357 19.8126 86.8214 19.8126C90.7834 19.8126 92.0313 21.6223 92.0313 24.5084V29.1573C92.0313 31.8874 92.2808 32.4959 93.5599 32.6051V32.9327H89.2235L89.2391 32.9171ZM88.3968 26.9577C84.9496 26.9577 84.2788 27.7221 84.2788 29.563C84.2788 31.0138 84.9964 31.7314 86.1974 31.7314C86.5562 31.7314 88.3968 31.4506 88.3968 28.8141V26.9421V26.9577Z" fill="#005843"></path>
    <path d="M99.0506 33.2915C97.522 33.2915 96.1181 32.6987 95.3226 32.6987C95.073 32.6987 94.9638 32.8079 94.8858 32.9015H94.4023V29.1262H94.8858C95.4162 30.7018 97.1632 31.9343 99.2066 31.9343C100.299 31.9343 101.89 31.5287 101.89 30.0622C101.89 28.5958 99.6434 28.3773 97.9899 27.7689C96.2741 27.1293 94.3711 26.3337 94.3711 23.6348C94.3711 21.4195 96.2117 19.7502 99.1442 19.7502C101.344 19.7502 101.999 20.3119 102.763 20.3119C102.966 20.3119 103.153 20.1403 103.153 20.1403H103.559L103.949 23.6972L103.512 23.744C103.231 22.6675 101.718 21.0919 99.4718 21.0919C98.2707 21.0919 97.1788 21.4975 97.1788 22.7299C97.1788 23.7284 98.2707 24.2432 100.189 24.7736C102.56 25.4444 104.682 26.2245 104.682 29.1106C104.682 30.9514 103.325 33.3071 99.0662 33.3071" fill="#005843"></path>
    <path d="M116.084 32.4804C115.164 33.0108 113.323 33.354 112.153 33.354C107.754 33.354 105.711 30.0311 105.711 26.5678C105.711 24.7269 106.428 19.7971 111.919 19.7971C113.479 19.7971 114.274 20.2807 114.883 20.2807C115.132 20.2807 115.335 20.1559 115.335 20.1559H115.803L116.24 23.9157C116.24 23.9157 115.928 23.9157 115.756 23.9469C115.429 22.8236 114.352 21.1856 112.668 21.1856C110.858 21.1856 109.392 22.6676 109.392 26.9266C109.392 28.3306 109.829 31.9343 112.761 31.9343C114.602 31.9343 115.975 30.3275 116.255 29.8907L116.645 29.9999L116.084 32.496V32.4804Z" fill="#005843"></path>
    <path d="M125.786 32.9171L125.552 31.747C125.084 32.2619 124.226 33.3071 121.512 33.3071C118.954 33.3071 117.113 31.9342 117.113 29.5786C117.113 25.85 121.434 25.5224 124.928 25.3352V23.7284C124.928 23.1199 124.757 21.4039 122.448 21.4039C120.311 21.4039 118.673 23.4788 118.595 23.6036L118.236 23.5568L118.439 21.0607C118.829 20.8111 120.483 19.8126 123.368 19.8126C127.33 19.8126 128.578 21.6223 128.578 24.5084V29.1573C128.578 31.8874 128.828 32.4959 130.107 32.6051V32.9327H125.77L125.786 32.9171ZM124.944 26.9577C121.496 26.9577 120.826 27.7221 120.826 29.563C120.826 31.0138 121.543 31.7314 122.744 31.7314C123.103 31.7314 124.944 31.4506 124.944 28.8141V26.9421V26.9577Z" fill="#005843"></path>
    <path d="M139.668 22.9484C139.434 22.2776 138.935 21.9031 138.109 21.9031C136.315 21.9031 135.753 24.3836 135.753 25.6317V30.6083C135.753 31.8875 136.112 32.4803 137.157 32.5739V32.9015H130.777V32.5739C131.666 32.5739 132.181 32.0591 132.181 30.5302V22.9952C132.181 21.4819 131.62 20.9827 130.777 21.0763L130.73 20.7487L135.348 19.7815V21.8563C135.675 21.1699 136.549 19.6099 138.467 19.6099C139.278 19.6099 139.871 19.9375 140.199 20.1403V22.9484H139.668Z" fill="#005843"></path>
    <path d="M83.3732 46.9888V46.8016C83.8099 46.8016 83.8879 46.3648 83.7475 45.9748L82.9832 43.9467H80.2223L79.4268 46.1464C79.3176 46.4584 79.4268 46.8016 79.8011 46.8016V46.9888H77.7109V46.8016C77.9605 46.8016 78.2725 46.5988 78.3973 46.2712L81.2206 38.6893C81.3766 38.2525 81.2206 38.0185 80.9242 38.0185V37.8313H83.264L86.4461 46.1932C86.5864 46.552 86.8828 46.786 87.1324 46.786V46.9732H83.3732V46.9888ZM81.595 40.1402L80.5343 43.0419H82.6556L81.595 40.1402Z" fill="#9d7614"></path>
    <path d="M87.6471 46.9888V46.8016C87.9591 46.8016 88.3491 46.7236 88.3491 45.928V38.9077C88.3491 38.2525 87.9123 38.0185 87.5692 38.0185V37.8313H91.4532V38.0185C91.0008 38.0185 90.7512 38.2837 90.7512 38.9389V45.8812C90.7512 46.5832 91.1568 46.8016 91.5468 46.8016V46.9888H87.6471Z" fill="#9d7614"></path>
    <path d="M98.3789 46.9888L96.0391 43.0419C95.7739 43.0731 95.8363 43.0731 95.5088 43.0731V45.8812C95.5088 46.4428 95.8831 46.8016 96.3043 46.8016V46.9888H92.5139V46.8016C92.9506 46.8016 93.2158 46.6768 93.2158 45.928V38.9077C93.2158 38.3305 92.9662 38.0185 92.4515 38.0185V37.8313H96.6631C97.2402 37.8313 100.157 37.6753 100.157 40.3118C100.157 41.903 98.8156 42.5115 98.3633 42.6363L100.656 46.162C100.734 46.2712 101.265 46.8016 101.545 46.8016V46.9888H98.3789ZM96.1483 38.5801H95.5088V42.2463H96.0079C96.897 42.2463 97.8485 41.8562 97.8485 40.4054C97.8485 39.1105 97.0998 38.5957 96.1483 38.5957" fill="#9d7614"></path>
    <path d="M108.175 46.9888H101.904V46.8016C102.154 46.8016 102.653 46.7548 102.653 45.928V38.9077C102.653 38.3617 102.356 38.0185 101.857 38.0185V37.8313H105.726V38.0185C105.336 38.0185 105.024 38.1901 105.024 38.8765V45.5224C105.024 45.8344 105.211 46.084 105.554 46.084H106.896C107.832 46.084 108.424 45.8188 108.658 45.3196L108.845 45.3976L108.175 46.9732V46.9888Z" fill="#9d7614"></path>
    <path d="M109.079 46.9888V46.8016C109.391 46.8016 109.781 46.7236 109.781 45.928V38.9077C109.781 38.2525 109.345 38.0185 109.001 38.0185V37.8313H112.885V38.0185C112.433 38.0185 112.184 38.2837 112.184 38.9389V45.8812C112.184 46.5832 112.589 46.8016 112.979 46.8016V46.9888H109.079Z" fill="#9d7614"></path>
    <path d="M122.369 38.8765V47.4256L115.553 39.485V45.8656C115.553 46.5832 115.865 46.8016 116.317 46.8016V46.9888H113.853V46.8016C114.242 46.8016 114.617 46.6768 114.617 45.9748V38.9701C114.617 38.1433 114.196 38.0185 113.806 38.0185V37.8313H117.237L121.433 42.8391V38.9545C121.433 38.2369 121.059 38.0185 120.622 38.0185V37.8313H123.071V38.0185C122.65 38.0185 122.354 38.2369 122.354 38.8765" fill="#9d7614"></path>
    <path d="M123.992 46.9888V46.8016C124.678 46.7548 124.725 46.2712 124.725 45.85V38.8453C124.725 38.2369 124.366 38.0185 123.96 38.0185V37.8313H130.278L130.059 39.3446L129.872 39.3134C129.841 38.8765 129.404 38.6737 128.453 38.6737H127.111V41.903H128.609C128.921 41.903 129.888 41.981 129.888 41.2166H130.091V43.4787H129.888C129.888 42.9171 129.451 42.7767 128.593 42.7767H127.111V45.5068C127.111 45.8344 127.252 46.1152 127.704 46.1152H129.061C129.841 46.1152 130.59 45.772 130.87 45.3508L131.073 45.4444L130.387 46.9888H123.992Z" fill="#9d7614"></path>
    <path d="M134.474 47.176C133.475 47.176 132.867 46.864 132.571 46.864C132.29 46.864 132.118 46.9732 132.118 46.9732H131.869L131.541 44.5707L131.744 44.5395C131.884 44.9607 132.586 46.3336 134.333 46.3336C135.285 46.3336 135.784 45.7408 135.784 45.1168C135.784 44.2743 134.676 43.8219 133.787 43.2447C132.305 42.2931 131.588 41.7314 131.588 40.3898C131.588 40.4834 131.401 37.6753 134.692 37.6753C135.831 37.6753 136.205 37.9717 136.626 37.9717C136.72 37.9717 136.876 37.8781 136.876 37.8781H137.079V40.1246H136.876C136.673 39.2977 135.987 38.5021 134.864 38.5021C134.068 38.5021 133.507 39.0481 133.507 39.6098C133.507 40.3274 134.193 40.6706 135.02 41.1698C136.548 42.0746 137.703 42.7455 137.703 44.3991C137.703 46.3024 136.392 47.2072 134.458 47.2072" fill="#9d7614"></path>
    <path d="M 174.4707 0.00390625 C 174.38659 0.011035082 174.30263 0.025427512 174.21875 0.046875 L 174.1875 0.046875 C 174.0155 0.0936696 173.84387 0.140705 173.67188 0.1875 C 173.46887 0.234294 173.26745 0.296982 173.06445 0.359375 C 172.93945 0.390571 172.8297 0.421956 172.7207 0.46875 L 171.87891 0.74804688 C 171.69191 0.81043988 171.50341 0.88877987 171.31641 0.95117188 C 171.14441 1.0135669 170.95716 1.0919069 170.78516 1.1542969 C 170.75416 1.1698969 170.70873 1.1855719 170.67773 1.2011719 C 172.54973 3.5097019 174.03092 6.129905 175.04492 8.984375 C 175.46592 10.169855 175.80859 11.386841 176.05859 12.619141 C 176.15159 13.087041 176.23059 13.555512 176.30859 14.007812 L 176.30859 14.070312 C 176.38659 14.507112 176.55727 14.912634 176.82227 15.240234 C 177.16527 15.692534 177.64994 16.035356 178.21094 16.160156 C 178.14894 16.893256 178.11719 17.641925 178.11719 18.390625 C 178.11719 19.404525 178.18006 20.417716 178.28906 21.416016 C 178.50806 23.319016 178.91323 25.1749 179.49023 26.9375 C 179.70923 27.5927 179.94203 28.217922 180.20703 28.857422 C 180.44103 28.295922 180.66028 27.717825 180.86328 27.140625 C 180.59828 26.282725 180.37803 25.424256 180.20703 24.535156 L 180.22266 24.566406 C 179.73966 22.601006 179.49023 20.543275 179.49023 18.421875 L 179.49023 18.125 L 179.49023 17.828125 C 179.49023 17.235425 179.53761 16.643481 179.59961 16.050781 C 179.59961 15.957181 179.59923 15.520709 179.61523 15.037109 L 179.61523 14.132812 C 179.61523 13.742912 179.63123 13.429513 179.61523 13.320312 C 179.61523 12.977213 179.44336 11.105419 179.44336 11.074219 C 179.41236 10.824619 179.38098 10.575672 179.33398 10.326172 C 178.89798 7.3624719 177.96114 4.5541688 176.61914 1.9804688 C 176.40114 1.5749088 176.18322 1.1692519 175.94922 0.77929688 C 175.63597 0.247009 175.05948 -0.045995576 174.4707 0.00390625 z M 186.03906 0.00390625 C 185.45049 -0.043223275 184.87434 0.26065725 184.57422 0.77929688 C 184.32522 1.2004519 184.06067 1.6685338 183.88867 1.9960938 C 182.54767 4.5698038 181.61278 7.3625069 181.17578 10.341797 C 181.14478 10.591297 181.09741 10.840244 181.06641 11.089844 C 181.06641 11.121044 180.89453 12.992838 180.89453 13.335938 L 180.89453 14.148438 L 180.89453 15.052734 C 180.89453 15.536334 180.91016 15.972806 180.91016 16.066406 C 180.95616 16.565506 180.98891 17.080978 181.00391 17.580078 L 181.00391 17.828125 L 181.00391 18.125 L 181.00391 18.421875 C 181.00391 18.702675 181.00328 18.998597 180.98828 19.279297 C 180.92528 21.213497 181.01845 23.163406 181.43945 25.066406 C 181.43945 25.113206 181.4557 25.160231 181.4707 25.207031 C 182.0327 23.038931 182.32812 20.7617 182.32812 18.4375 C 182.32812 17.6732 182.29833 16.940131 182.23633 16.207031 C 182.29833 16.207031 182.36083 16.175756 182.42383 16.160156 C 182.92283 16.019756 183.3423 15.708209 183.6543 15.287109 C 183.9193 14.943909 184.09192 14.553987 184.16992 14.117188 L 184.16992 14.054688 C 184.23192 13.586787 184.32692 13.118316 184.41992 12.666016 C 184.66992 11.418116 185.01197 10.20114 185.41797 9.03125 C 186.43097 6.19238 187.91316 3.5565769 189.78516 1.2480469 L 189.76953 1.2480469 L 189.78516 1.2011719 C 189.78516 1.2011719 189.72341 1.1854969 189.69141 1.1542969 C 189.52041 1.0919069 189.33216 1.0135669 189.16016 0.95117188 C 188.97316 0.87318087 188.78661 0.81043988 188.59961 0.74804688 L 187.75781 0.46875 C 187.64881 0.421956 187.52306 0.390571 187.41406 0.359375 C 187.21106 0.296982 187.00964 0.234294 186.80664 0.1875 C 186.63464 0.140705 186.46302 0.0936696 186.29102 0.046875 C 186.20714 0.025427512 186.12314 0.010639039 186.03906 0.00390625 z M 194.66797 3.9003906 C 193.45197 4.7583006 192.29695 5.7244512 191.25195 6.7695312 C 188.63195 9.3744313 186.54059 12.525556 185.18359 16.035156 C 185.12059 16.175556 185.07334 16.301006 185.02734 16.441406 C 184.96434 16.612906 184.87172 16.940103 184.76172 17.345703 C 184.26272 19.123803 183.71617 22.321437 183.57617 22.960938 C 183.54517 23.085738 183.53063 23.226762 183.51562 23.351562 C 183.09363 25.628863 182.35933 27.796419 181.36133 29.824219 C 181.22133 30.136219 181.06653 30.432141 180.89453 30.744141 C 181.12853 31.212041 181.3932 31.649262 181.6582 32.101562 C 181.7832 31.883263 181.90858 31.679337 182.01758 31.460938 C 183.65558 28.434938 184.74709 25.066141 185.12109 21.494141 L 185.15234 21.494141 C 185.32434 21.525341 185.48047 21.556666 185.60547 21.572266 L 185.65234 21.572266 L 185.85352 21.572266 C 186.91452 21.509866 187.80348 20.824422 188.14648 19.857422 C 188.33348 19.358222 188.53686 18.874225 188.75586 18.390625 C 189.34786 17.033625 190.06558 15.738059 190.89258 14.505859 C 192.85758 11.557759 195.39928 9.0317763 198.36328 7.0664062 L 198.34766 7.0664062 L 198.34766 7.0351562 C 197.22466 5.8808963 195.99359 4.8206906 194.68359 3.9003906 L 194.66797 3.9003906 z M 165.85742 3.9160156 L 165.85742 3.9316406 C 164.53242 4.8675306 163.28316 5.9121613 162.16016 7.0820312 C 165.12316 9.0318012 167.66781 11.573384 169.63281 14.521484 C 170.44381 15.753684 171.16153 17.04925 171.76953 18.40625 C 172.00353 18.88985 172.18995 19.373847 172.37695 19.873047 C 172.75195 20.871247 173.7028 21.587891 174.8418 21.587891 C 174.9668 21.587891 175.1703 21.556541 175.4043 21.494141 C 175.5913 23.303541 175.96414 25.067353 176.49414 26.751953 C 177.02514 28.389753 177.68119 29.963512 178.49219 31.445312 C 178.74219 31.928912 179.02173 32.397209 179.30273 32.849609 C 179.34973 32.927609 179.41198 33.006009 179.45898 33.099609 C 179.72398 33.505209 179.98853 33.910781 180.26953 34.300781 C 180.55053 33.910781 180.80178 33.536459 181.05078 33.130859 C 180.76978 32.709759 180.51953 32.272612 180.26953 31.820312 L 180.23828 31.820312 C 180.14428 31.664313 180.06761 31.523212 179.97461 31.382812 C 179.67761 30.868112 179.41111 30.354544 179.16211 29.839844 C 178.17911 27.812044 177.44677 25.642534 177.00977 23.365234 C 176.99477 23.240434 176.96227 23.101363 176.94727 22.976562 C 176.94727 22.914162 176.93297 22.851462 176.91797 22.789062 C 176.63697 20.964063 176.26072 19.139528 175.76172 17.361328 C 175.65272 16.955828 175.54309 16.628531 175.49609 16.457031 C 175.44909 16.316631 175.4048 16.191181 175.3418 16.050781 C 173.9848 12.541181 171.89444 9.3900562 169.27344 6.7851562 C 168.22844 5.7244763 167.07442 4.7739156 165.85742 3.9160156 z M 158.49414 11.949219 C 159.78914 12.978719 160.89786 14.240781 161.75586 15.675781 C 161.83386 15.816181 161.91028 15.957231 161.98828 16.082031 C 163.79728 19.139231 166.73098 21.446987 170.20898 22.429688 C 170.33398 22.445287 170.45898 22.492237 170.58398 22.523438 L 170.61523 22.523438 C 171.70723 22.850938 172.65895 23.507334 173.37695 24.365234 C 173.53295 24.599234 173.68837 24.816781 173.85938 25.050781 C 174.04638 25.378281 174.21875 25.721378 174.34375 26.080078 C 174.28075 25.877378 174.21863 25.628431 174.14062 25.332031 L 174.12305 25.363281 C 173.70205 23.709881 172.98508 22.149969 171.95508 20.792969 L 171.95508 20.777344 C 171.83108 20.605744 171.72253 20.464694 171.64453 20.371094 C 168.69653 16.892694 164.88911 14.194516 160.53711 12.603516 C 159.86711 12.353916 159.19614 12.136419 158.49414 11.949219 z M 201.99805 11.949219 L 201.99805 11.964844 L 201.9668 11.964844 C 201.2968 12.152044 200.64095 12.369516 200.00195 12.603516 C 195.64995 14.194516 191.82848 16.892694 188.89648 20.371094 C 188.81848 20.464694 188.70898 20.605744 188.58398 20.777344 L 188.56836 20.777344 C 187.53936 22.149944 186.82139 23.709881 186.40039 25.363281 C 186.36939 25.472481 186.33827 25.580253 186.32227 25.689453 C 186.32009 25.700389 186.31678 25.709921 186.31445 25.720703 C 186.26456 25.814303 186.22469 25.908353 186.19727 26.001953 C 186.19727 26.017553 186.19664 26.033228 186.18164 26.048828 C 186.18164 26.064428 186.18202 26.080103 186.16602 26.095703 C 185.41802 28.575903 184.29437 30.900159 182.85938 33.005859 C 182.57937 33.411459 182.29795 33.817031 182.00195 34.207031 C 181.98595 34.222631 181.97008 34.253931 181.95508 34.269531 C 181.67408 34.643931 181.37708 35.002503 181.08008 35.345703 C 181.06508 35.361303 181.03491 35.408228 181.00391 35.423828 C 181.28491 35.782528 181.5962 36.110025 181.9082 36.453125 C 181.9082 36.437525 181.93945 36.42185 181.93945 36.40625 C 182.22045 36.07875 183.35805 34.643931 183.62305 34.269531 C 184.59005 32.928131 185.43277 31.477819 186.13477 29.949219 C 186.41577 29.356519 186.66444 28.762597 186.89844 28.154297 C 187.28844 27.140397 187.61623 26.095731 187.86523 25.019531 C 188.08423 25.175431 188.31898 25.300931 188.58398 25.394531 C 188.84898 25.488131 189.11316 25.519531 189.41016 25.519531 C 189.72216 25.519531 190.0182 25.472506 190.2832 25.378906 C 190.4552 25.316506 190.6272 25.222406 190.7832 25.128906 C 190.9392 25.019706 191.0807 24.909931 191.2207 24.769531 C 191.2827 24.707131 191.34425 24.644406 191.40625 24.566406 C 191.43725 24.535206 191.46938 24.503831 191.48438 24.457031 C 192.03037 23.770731 192.62442 23.116088 193.23242 22.492188 C 194.40242 21.306687 195.68169 20.230797 197.05469 19.279297 C 197.11669 19.232497 197.17823 19.185472 197.24023 19.138672 C 197.44323 18.998372 197.63161 18.8748 197.84961 18.75 C 198.92661 18.0637 200.04875 17.438528 201.21875 16.923828 C 202.06075 16.533828 202.95084 16.190931 203.83984 15.894531 C 203.34677 14.538237 202.74576 13.228946 202.02344 11.994141 C 202.03277 11.988479 202.03801 11.987655 202.04492 11.980469 L 202.01562 11.980469 C 202.00958 11.970158 202.00411 11.959519 201.99805 11.949219 z M 158.49414 11.964844 C 157.76114 13.228244 157.15367 14.553206 156.63867 15.941406 C 159.00967 16.721306 161.20833 17.812947 163.23633 19.185547 C 164.68733 20.168247 166.02972 21.291163 167.26172 22.539062 C 167.87072 23.162962 168.46181 23.817606 169.00781 24.503906 C 169.03881 24.535106 169.05494 24.566481 169.08594 24.613281 C 169.56994 25.190381 170.28666 25.566406 171.09766 25.566406 C 171.67566 25.566406 172.20595 25.378306 172.62695 25.066406 L 172.64258 25.066406 C 173.06358 26.782206 173.64005 28.436294 174.37305 29.996094 C 175.07505 31.509094 175.91777 32.959306 176.88477 34.316406 C 177.15077 34.690706 178.28931 36.125625 178.57031 36.453125 C 178.80431 36.733925 179.05373 36.982847 179.30273 37.248047 C 179.61473 37.575547 179.92786 37.902944 180.25586 38.214844 C 180.56786 37.918544 180.8622 37.606922 181.1582 37.294922 C 180.8462 36.967422 180.55186 36.62435 180.25586 36.28125 L 180.23828 36.25 C 179.97328 35.9692 179.69336 35.657628 179.44336 35.361328 C 179.13136 35.002528 177.91539 33.427059 177.65039 33.005859 C 176.30839 31.024959 175.23142 28.857328 174.48242 26.548828 C 174.43542 26.392828 174.39075 26.251728 174.34375 26.111328 C 174.21875 25.752628 174.04637 25.409531 173.85938 25.082031 C 173.68838 24.848031 173.53295 24.630484 173.37695 24.396484 C 172.65895 23.538584 171.70723 22.882163 170.61523 22.539062 L 170.58398 22.539062 L 170.20898 22.445312 C 166.71498 21.462612 163.78228 19.139256 161.98828 16.097656 C 161.91028 15.957256 161.83386 15.816206 161.75586 15.691406 C 160.89786 14.256406 159.78914 12.994344 158.49414 11.964844 z M 204.94727 20.277344 L 204.95508 20.292969 C 204.97145 20.292779 204.99714 20.291115 205.02539 20.277344 L 204.94727 20.277344 z M 204.95508 20.292969 C 204.9529 20.292994 204.94902 20.292969 204.94727 20.292969 C 204.8756 20.306586 204.80566 20.325113 204.73438 20.339844 C 204.75263 20.337471 204.77079 20.334366 204.78906 20.332031 C 204.58592 20.372251 204.38344 20.41587 204.18359 20.464844 C 203.97859 20.515081 203.77553 20.571633 203.57422 20.630859 C 203.77527 20.570554 203.97891 20.516059 204.18359 20.464844 C 204.36583 20.419245 204.54944 20.37806 204.73438 20.339844 C 202.54138 20.624856 200.42215 21.179747 198.44141 21.962891 C 195.19741 23.241991 192.26478 25.16025 189.80078 27.53125 C 189.56678 27.76515 189.33228 27.982797 189.11328 28.216797 C 188.70828 28.637897 188.30369 29.075044 187.92969 29.527344 C 187.86669 29.605344 187.75681 29.746344 187.63281 29.902344 C 186.99281 30.791444 186.44784 31.726284 185.96484 32.708984 C 185.9352 32.795702 185.89295 32.870409 185.84961 32.955078 C 185.84011 32.966459 185.832 32.979093 185.82227 32.990234 C 185.76027 33.083834 185.69714 33.177884 185.61914 33.271484 C 185.61914 33.271484 185.58922 33.318409 185.57422 33.349609 C 185.55822 33.380809 185.54234 33.412159 185.52734 33.443359 C 185.51134 33.490159 185.48084 33.521559 185.46484 33.568359 C 185.46484 33.583959 185.44959 33.597681 185.43359 33.613281 C 185.10659 34.221581 184.74742 34.831028 184.35742 35.423828 C 184.13942 35.751328 183.91955 36.078625 183.68555 36.390625 C 183.63855 36.452925 183.5923 36.531375 183.5293 36.609375 C 183.4203 36.749775 183.32775 36.888897 183.21875 37.029297 C 183.09375 37.185297 182.96937 37.342022 182.85938 37.482422 C 182.75037 37.638422 182.62595 37.763922 182.50195 37.919922 C 182.40795 38.013522 182.32995 38.105744 182.25195 38.214844 C 181.95595 38.558044 181.6577 38.887344 181.3457 39.214844 C 181.2367 39.339644 181.11291 39.447466 181.00391 39.572266 C 181.31591 39.884266 181.64333 40.195787 181.98633 40.492188 C 182.12633 40.351788 182.26625 40.212666 182.40625 40.072266 C 182.71825 39.744766 183.03017 39.401819 183.32617 39.074219 C 183.42017 38.965119 183.51575 38.870919 183.59375 38.761719 C 183.68675 38.652519 183.76342 38.542819 183.85742 38.449219 C 183.95042 38.324419 184.0453 38.216497 184.1543 38.091797 C 184.2483 37.966997 184.34155 37.841597 184.43555 37.716797 C 184.48255 37.654397 184.51355 37.607322 184.56055 37.544922 C 184.60655 37.482522 184.65259 37.419847 184.68359 37.373047 C 184.74659 37.279447 184.80809 37.201022 184.87109 37.107422 C 184.99509 36.935822 185.12109 36.749725 185.24609 36.578125 C 186.18209 35.205525 186.99306 33.739638 187.66406 32.210938 L 187.75781 32.210938 C 187.88281 32.242137 188.02111 32.257812 188.16211 32.257812 L 188.28711 32.257812 C 188.33311 32.257812 188.38111 32.257788 188.41211 32.242188 C 188.92711 32.164187 189.41141 31.929137 189.81641 31.585938 C 189.95741 31.461137 190.11391 31.337716 190.25391 31.228516 C 190.54991 30.994616 190.8462 30.759391 191.1582 30.525391 C 192.3282 29.651891 193.57439 28.887497 194.90039 28.216797 C 196.27339 27.514897 197.72528 26.938628 199.23828 26.486328 L 199.25391 26.486328 C 199.56591 26.377128 199.90833 26.298678 200.23633 26.205078 C 200.90733 26.033478 201.5933 25.876778 202.2793 25.767578 C 202.9663 25.642778 203.66714 25.550681 204.36914 25.488281 C 204.68114 25.457081 205.00831 25.425756 205.32031 25.410156 C 205.33531 25.098256 205.33594 24.784681 205.33594 24.488281 C 205.33594 23.068881 205.21119 21.681319 204.99219 20.324219 L 204.96289 20.308594 L 204.95508 20.292969 z M 155.46875 20.292969 C 155.46686 20.303926 155.46672 20.315211 155.46484 20.326172 L 155.46289 20.326172 C 155.23281 21.672724 155.12695 23.049342 155.12695 24.472656 C 155.12695 24.784656 155.12563 25.098231 155.14062 25.394531 C 158.86863 25.612931 162.39455 26.594572 165.56055 28.201172 C 166.87055 28.871872 168.11869 29.636266 169.30469 30.509766 C 169.61669 30.728166 169.91298 30.963291 170.20898 31.212891 C 170.36498 31.337591 170.50648 31.445512 170.64648 31.570312 C 171.05248 31.897913 171.53578 32.148562 172.05078 32.226562 C 172.12878 32.242162 172.22083 32.257812 172.29883 32.257812 C 172.47083 32.257812 172.64283 32.242138 172.79883 32.210938 C 173.46883 33.739638 174.2808 35.205525 175.2168 36.578125 C 175.3418 36.749725 175.4508 36.935822 175.5918 37.107422 C 175.6538 37.201022 175.71434 37.279447 175.77734 37.373047 C 175.85534 37.497847 175.94934 37.607597 176.02734 37.716797 C 176.21534 37.966397 176.41747 38.199619 176.60547 38.449219 C 176.77647 38.667619 176.94777 38.871544 177.13477 39.089844 C 177.43077 39.433044 177.72769 39.760391 178.05469 40.087891 C 178.42969 40.477891 178.81998 40.852163 179.20898 41.226562 C 179.53698 41.538562 179.87928 41.834459 180.23828 42.130859 C 180.58128 41.850059 180.89466 41.569838 181.22266 41.273438 C 180.89466 40.977038 180.56628 40.665491 180.23828 40.337891 L 180.22266 40.322266 C 179.83266 39.963466 179.45994 39.604844 179.08594 39.214844 C 178.77394 38.887344 178.46069 38.558044 178.17969 38.214844 C 177.96169 37.980944 177.75927 37.732047 177.57227 37.498047 C 177.33827 37.201747 177.10339 36.905775 176.90039 36.609375 C 176.83839 36.546975 176.79114 36.468525 176.74414 36.390625 C 176.51014 36.078625 176.29322 35.766928 176.07422 35.423828 C 175.68422 34.831028 175.32605 34.221581 174.99805 33.613281 C 174.98205 33.582081 174.96655 33.552684 174.93555 33.521484 C 174.90355 33.459084 174.8728 33.412009 174.8418 33.349609 C 174.8418 33.334009 174.81092 33.302709 174.79492 33.287109 C 174.77264 33.256617 174.75423 33.227294 174.73242 33.197266 C 174.66163 33.056257 174.59056 32.913169 174.51367 32.771484 L 174.54688 32.740234 C 174.07888 31.757534 173.51595 30.807094 172.87695 29.933594 C 172.75195 29.761994 172.65808 29.636594 172.58008 29.558594 C 172.20608 29.106294 171.81553 28.669147 171.39453 28.248047 C 171.16053 28.014047 170.94236 27.7808 170.69336 27.5625 C 168.22836 25.1759 165.29578 23.273241 162.05078 21.994141 C 160.10438 21.218303 158.03287 20.66554 155.87695 20.380859 C 155.74131 20.351194 155.60587 20.318677 155.46875 20.292969 z M 190.20898 22.46875 L 190.08203 22.5 C 190.12439 22.48762 190.16651 22.477521 190.20898 22.46875 z M 155.29688 27.359375 L 155.29688 27.390625 C 156.09664 27.723066 156.85909 28.132601 157.57617 28.605469 C 156.87291 28.145683 156.12604 27.74705 155.34375 27.421875 C 155.54675 29.231275 155.9523 30.961834 156.5293 32.615234 C 158.5103 32.771234 160.44516 33.129806 162.28516 33.691406 C 163.40916 34.034506 164.48492 34.440353 165.54492 34.939453 C 165.70092 35.001853 165.8733 35.080203 166.0293 35.158203 C 166.5443 35.392203 167.04397 35.6567 167.54297 35.9375 C 167.71497 36.0467 167.88464 36.140775 168.05664 36.234375 C 168.36864 36.374775 168.71131 36.4375 169.07031 36.4375 C 169.42831 36.4375 169.80386 36.343525 170.13086 36.203125 C 170.33386 36.109525 170.52173 35.999825 170.67773 35.890625 C 171.33273 37.013725 172.08158 38.091669 172.89258 39.105469 C 173.00158 39.230269 173.09412 39.369341 173.20312 39.494141 C 173.39013 39.696941 173.68838 40.041366 173.85938 40.259766 C 173.93738 40.353366 174.01575 40.429838 174.09375 40.523438 C 174.09375 40.523438 174.10963 40.554712 174.14062 40.570312 C 174.23462 40.679513 174.32655 40.789237 174.43555 40.898438 C 174.74755 41.241638 175.09292 41.568984 175.41992 41.896484 C 175.84092 42.286484 176.27652 42.676381 176.72852 43.050781 C 177.10352 43.347181 177.47756 43.643053 177.85156 43.939453 C 178.21056 44.204553 178.58656 44.471128 178.97656 44.736328 C 179.03856 44.783128 179.09911 44.814528 179.16211 44.861328 C 179.83211 45.298028 180.70791 45.313628 181.37891 44.861328 C 180.98891 44.564928 179.41148 43.409606 179.02148 43.128906 L 178.99023 43.097656 C 178.61623 42.832456 178.24119 42.536534 177.86719 42.240234 C 177.43019 41.881434 176.99584 41.507187 176.58984 41.117188 C 176.24684 40.805188 175.9188 40.477991 175.5918 40.150391 C 175.4358 39.994391 175.2943 39.837641 175.1543 39.681641 C 174.9983 39.510041 174.84117 39.355194 174.70117 39.183594 C 174.54517 39.012094 174.40405 38.839569 174.24805 38.667969 C 174.09205 38.496369 173.9525 38.308319 173.8125 38.136719 C 173.6245 37.902819 173.45325 37.669547 173.28125 37.435547 C 173.11025 37.201647 172.95483 36.984 172.79883 36.75 C 172.76218 36.706032 172.72337 36.66397 172.68555 36.621094 C 172.60827 36.50969 172.52569 36.3809 172.44141 36.236328 L 172.43945 36.234375 C 171.55565 34.864724 170.45914 33.617785 169.16406 32.630859 C 169.16406 32.630859 169.14844 32.630834 169.14844 32.615234 C 169.07044 32.552834 168.99206 32.505759 168.91406 32.443359 C 168.50806 32.146959 168.10364 31.866737 167.68164 31.585938 C 164.71864 29.651737 161.34947 28.295775 157.73047 27.671875 C 156.93447 27.531475 156.12388 27.421775 155.29688 27.359375 z M 205.19531 27.390625 C 205.18021 27.396908 205.16547 27.403821 205.15039 27.410156 C 204.33901 27.473088 203.54421 27.580904 202.76367 27.71875 L 202.79492 27.671875 C 199.17592 28.280175 195.8058 29.651737 192.8418 31.585938 C 192.4208 31.866737 192.01538 32.146959 191.60938 32.443359 C 191.53137 32.505759 191.45495 32.552834 191.37695 32.615234 C 191.37695 32.615234 191.35938 32.615259 191.35938 32.630859 C 190.03438 33.629159 188.94369 34.89295 188.05469 36.28125 C 187.97669 36.40595 187.89831 36.5314 187.82031 36.625 C 187.81231 36.6367 187.80477 36.644794 187.79688 36.65625 C 187.77738 36.6777 187.75769 36.70315 187.74219 36.71875 C 187.58619 36.95275 187.42981 37.185997 187.25781 37.404297 C 187.08681 37.653897 186.89952 37.889047 186.72852 38.123047 C 186.58752 38.294547 186.44702 38.480744 186.29102 38.652344 C 186.15102 38.823944 185.99452 38.996469 185.85352 39.167969 C 185.71352 39.339569 185.55834 39.494416 185.40234 39.666016 C 185.26234 39.822016 185.10584 39.978766 184.96484 40.134766 C 184.65284 40.462366 184.3098 40.789562 183.9668 41.101562 C 183.5458 41.491563 183.1245 41.865809 182.6875 42.224609 C 182.3285 42.520909 181.95445 42.801231 181.56445 43.082031 C 181.50145 43.128831 181.37891 43.207206 181.25391 43.316406 L 182.35938 44.173828 C 182.48438 44.080228 182.60975 44.001803 182.71875 43.908203 C 183.09275 43.627403 183.4678 43.331431 183.8418 43.019531 C 184.2938 42.645131 184.73072 42.255234 185.13672 41.865234 C 185.47972 41.537734 185.80777 41.210388 186.13477 40.867188 C 186.24377 40.757987 186.35364 40.648263 186.43164 40.539062 C 186.44764 40.539062 186.46352 40.507788 186.47852 40.492188 C 186.58752 40.367387 186.71131 40.243941 186.82031 40.119141 C 187.00831 39.900741 187.19619 39.681291 187.36719 39.462891 C 187.47719 39.338091 187.58669 39.199019 187.67969 39.074219 C 188.49069 38.060419 189.23953 36.982475 189.89453 35.859375 C 190.05053 35.984175 190.23645 36.093875 190.43945 36.171875 C 190.76745 36.312275 191.14295 36.40625 191.50195 36.40625 C 191.86095 36.40625 192.20362 36.343525 192.51562 36.203125 C 192.68662 36.093925 192.8583 35.99985 193.0293 35.90625 C 193.5293 35.62545 194.02797 35.360953 194.54297 35.126953 C 194.69797 35.048953 194.86939 34.970603 195.02539 34.908203 C 196.07039 34.409103 197.16216 34.003256 198.28516 33.660156 C 200.11016 33.098556 202.04439 32.739984 204.02539 32.583984 C 204.10339 32.334384 204.19739 32.069888 204.27539 31.804688 C 204.32239 31.648688 204.36902 31.491912 204.41602 31.320312 C 204.47902 31.102013 204.54089 30.900041 204.58789 30.681641 C 204.84918 29.620418 205.06364 28.544006 205.18945 27.4375 L 205.19531 27.4375 L 205.19531 27.40625 L 205.19336 27.40625 C 205.19395 27.401007 205.19473 27.395869 205.19531 27.390625 z M 162.65234 32.712891 C 162.77047 32.783862 162.88941 32.8524 163.00977 32.919922 C 162.88976 32.851951 162.77011 32.784299 162.65234 32.712891 z M 163.17969 33.015625 C 163.9672 33.442992 164.80072 33.796444 165.66992 34.066406 C 166.51292 34.331606 167.38639 34.519681 168.27539 34.613281 C 168.57239 34.644481 168.86806 34.675781 169.16406 34.675781 C 169.60106 34.738081 170.00711 34.861578 170.41211 35.017578 C 170.77127 35.157651 171.11118 35.334282 171.42969 35.541016 C 171.12488 35.347422 170.8004 35.181979 170.45898 35.048828 C 170.06898 34.892828 169.64794 34.783078 169.21094 34.705078 C 168.91494 34.705078 168.61827 34.675731 168.32227 34.644531 C 167.41727 34.550931 166.5438 34.362856 165.7168 34.097656 C 164.82916 33.821968 163.98193 33.455259 163.17969 33.015625 z M 189.12695 35.521484 C 189.06881 35.558134 189.01383 35.598164 188.95703 35.636719 C 189.01361 35.598401 189.06896 35.557793 189.12695 35.521484 z M 188.83789 35.71875 C 188.7879 35.75444 188.73829 35.790994 188.68945 35.828125 C 188.73834 35.790784 188.78781 35.754532 188.83789 35.71875 z M 188.55078 35.935547 C 188.51105 35.967578 188.47247 36.000234 188.43359 36.033203 C 188.47218 36.000143 188.51135 35.967593 188.55078 35.935547 z " fill="#005843"></path>
    <path d="M 206.44336 38.386719 C 202.46536 38.620719 198.56652 38.481469 194.97852 39.042969 C 192.49852 39.432969 190.15811 40.135112 188.03711 41.507812 C 186.77411 42.334512 185.58942 43.379228 184.48242 44.736328 C 184.32642 44.923528 184.17005 45.109675 183.99805 45.296875 C 183.49905 45.858475 182.98483 46.373897 182.42383 46.841797 C 181.73683 47.418997 181.03341 47.902344 180.06641 47.902344 L 179.97461 47.902344 L 179.86523 47.902344 C 179.14723 47.902344 178.56969 47.651644 178.05469 47.277344 C 178.58569 47.948044 179.10061 48.696737 179.59961 49.523438 C 179.75561 49.804237 180.00453 49.929688 180.26953 49.929688 C 180.53453 49.929688 180.80141 49.788638 180.94141 49.523438 C 182.64141 46.715837 184.54464 44.829806 186.55664 43.503906 C 191.53264 40.259506 197.28722 40.523441 202.94922 39.369141 C 204.11922 39.119541 205.30594 38.823569 206.46094 38.417969 L 206.44336 38.386719 z " fill="#005843"></path>
    <path d="M 210.60938 36.40625 C 210.59117 36.417911 210.5729 36.427875 210.55469 36.439453 C 210.56188 36.438836 210.56898 36.43812 210.57617 36.4375 L 210.60938 36.40625 z M 210.55469 36.439453 C 205.68006 36.857972 200.86844 36.578383 196.46094 37.263672 C 193.79394 37.669272 191.26761 38.434216 188.97461 39.916016 C 187.60161 40.789516 186.32209 41.928331 185.12109 43.394531 C 184.95009 43.597331 184.77747 43.799153 184.60547 44.001953 C 184.07547 44.594653 183.51525 45.157075 182.90625 45.671875 C 182.18925 46.280175 181.42391 46.810547 180.37891 46.810547 L 180.26953 46.810547 L 180.25586 46.810547 L 180.14453 46.810547 C 179.11553 46.810547 178.33519 46.280175 177.61719 45.671875 C 177.13419 45.266275 176.66747 44.813703 176.23047 44.345703 C 176.94847 45.219203 177.53944 46.200994 178.02344 47.246094 C 178.03944 47.261694 178.05431 47.292994 178.07031 47.308594 C 178.58531 47.667294 179.16386 47.933594 179.88086 47.933594 L 179.98828 47.933594 L 180.08203 47.933594 C 181.04903 47.933594 181.7675 47.434647 182.4375 46.873047 C 182.9995 46.405147 183.52967 45.889725 184.01367 45.328125 C 184.18467 45.140925 184.34009 44.954778 184.49609 44.767578 C 185.60409 43.410478 186.79069 42.365763 188.05469 41.539062 C 188.5204 41.237655 188.99838 40.972947 189.48438 40.732422 C 190.57748 40.325744 192.39782 39.635836 193.85352 39.28125 C 194.23099 39.204452 194.60964 39.134685 194.99414 39.074219 C 195.37171 39.015377 195.75514 38.966828 196.13867 38.921875 C 196.86376 38.841326 197.59824 38.777686 198.34375 38.728516 C 198.66153 38.707556 198.98165 38.688662 199.30273 38.671875 C 199.33122 38.670386 199.36017 38.669429 199.38867 38.667969 C 200.61336 38.609969 201.86153 38.579346 203.12305 38.544922 C 203.4773 38.541157 203.81588 38.533584 204.53906 38.5 C 204.57802 38.498191 204.59284 38.498089 204.63477 38.496094 C 205.24068 38.475011 205.84991 38.451515 206.46094 38.417969 C 207.20894 38.152769 207.94045 37.841222 208.68945 37.482422 C 208.72045 37.466822 208.73658 37.451172 208.76758 37.451172 C 209.37292 37.148598 209.96394 36.815091 210.55469 36.439453 z " fill="#c2342f"></path>
    <path d="m 176.23,44.3145 c -0.109,-0.1092 -0.218,-0.2183 -0.312,-0.3431 -0.171,-0.2028 -0.343,-0.4056 -0.514,-0.6084 -0.032,-0.0468 -0.063,-0.0935 -0.11,-0.1247 -1.17,-1.4195 -2.417,-2.5113 -3.743,-3.3537 -2.293,-1.4818 -4.82,-2.2461 -7.487,-2.6516 -4.415,-0.6864 -9.234,-0.4056 -14.117,-0.8268 0.609,0.39 1.217,0.7332 1.841,1.0451 0.015,0 0.047,0.0156 0.078,0.0312 1.887,0.9203 3.806,1.4819 5.74,1.8718 0.702,0.1404 1.404,0.2652 2.106,0.3744 4.976,0.7799 9.92,0.9203 14.288,3.7591 1.404,0.9203 2.761,2.1214 4.024,3.728 -0.484,-1.0451 -1.076,-2.0278 -1.794,-2.9013 z" fill="#b0bcc0"></path>
    <path d="m 161.17773,41.101562 c 4.25226,4.766662 10.27922,7.914265 17.03711,8.404297 -0.0904,-0.14848 -0.18137,-0.282494 -0.28515,-0.433593 -0.26694,-0.388671 -0.51933,-0.728473 -0.76367,-1.044922 -0.0212,-0.0274 -0.0469,-0.07813 -0.0469,-0.07813 -1.138,-1.4194 -2.36778,-2.564266 -3.75976,-3.478516 -3.33404,-2.189762 -7.0822,-2.673473 -11.04297,-3.212891 -0.39135,-0.0533 -0.76468,-0.10945 -1.13868,-0.15625 z m 17.03711,8.404297 c 0.004,0.0061 0.008,0.01139 0.0117,0.01758 l 0.0156,-0.01563 c -0.009,-6.52e-4 -0.0182,-0.0013 -0.0273,-0.002 z m 20.72657,-8.341797 -0.67188,0.09375 v -0.01562 c -3.977,0.530299 -7.73584,1.02919 -11.08984,3.21289 -1.731,1.1231 -3.22932,2.636113 -4.57031,4.570313 -0.10901,0.156 -0.20193,0.310872 -0.29493,0.451171 6.598,-0.5771 12.46196,-3.664199 16.62696,-8.3125 z" fill="#9d7614"></path>
  </g>
  <defs>
    <clipPath id="clip0_3018_20467">
      <rect width="210.563" height="50" fill="#005843"></rect>
    </clipPath>
  </defs>
</svg>
