<svg version="1.1" id="Layer_1" xmlns="http://www.w3.org/2000/svg" xmlns:xlink="http://www.w3.org/1999/xlink" x="0px" y="0px" viewBox="0 0 92.4 45" style="enable-background:new 0 0 92.4 45;" xml:space="preserve">
 <style type="text/css">
  .st0{fill:#1D4071;}
	.st1{fill:#4A86C6;}
	.st2{fill:#83C453;}
	.st3{fill:#F8A052;}
	.st4{fill:#1A4071;}
	.st5{fill:#F04A43;}
	.st6{fill:#F04B44;}
 </style>
 <g>
  <path class="st0" d="M70.5,37.7c1.2-1.1,2.3-2.4,3.2-3.8c0-0.1,0.1-0.1,0.1-0.2c0.8-1.3,1.3-2.2,1.6-2.9c-0.1,0.1-0.1,0.3-0.2,0.4
		c-0.4,0.7-0.8,1.5-1.4,2.3c-0.5,0.6-1,1.3-1.5,1.9c-1,1-2.1,2-3.4,2.8c-0.1,0-0.1,0.1-0.2,0.1c0,0,0,0,0,0c0,0,0,0,0,0.1
		c0,0,0.1,0.1,0.1,0.1c0.1,0.1,0.2,0.3,0.3,0.4c1.6,2.1,4.2,3.9,6,5c2.6,0.6,5.2,1,7.5,1.1C76.7,43.8,72.3,40,70.5,37.7">
  </path>
  <path class="st1" d="M75.6,20.8c0.2,0,0.4-0.1,0.6-0.2C76.1,20,76,19.5,75.8,19c0,0,0,0,0,0c-0.2,0.1-0.3,0.1-0.6,0.1
		c-0.1,0-0.3,0-0.4,0c0.2,0.5,0.4,1.1,0.6,1.7C75.5,20.8,75.6,20.8,75.6,20.8">
  </path>
  <path class="st1" d="M74,21c-0.5-1.2-1.4-1.4-2.2-1.5c-1-0.2-1.9-0.2-2-1.6c0,0,0,0,0-0.1c-0.6-0.2-1.1-0.5-1.6-0.7
		c0,0,0,0.1,0.1,0.1c0.5,0.6,0.9,1.3,1.5,1.9c0.9,1.2,2.1,1.7,3.3,1.8C73.3,21,73.7,21,74,21">
  </path>
  <path class="st1" d="M62.8,16.3c-1.5,0.1-2.7,0.2-2.8-0.6c-1.1-0.1-2.4-0.3-3.7-0.7c2.7,1.2,4.7,1.8,6.3,2.2
		c0.2,0.1,0.5,0.1,0.7,0.2c-0.1-0.1-0.1-0.2-0.2-0.3C63,16.8,62.9,16.6,62.8,16.3">
  </path>
  <path class="st1" d="M69.9,30.9c-2.5,2.2-3.7,4.9-4.2,6.7c0.6-0.1,1.2-0.2,1.7-0.3c-0.1,0-0.2-0.1-0.3-0.3
		c-0.6-1.7,0.3-2.4,1.6-2.8c0.1,0,0.1,0,0.2-0.1c0-0.3,0.1-0.6,0.7-0.8c0.5-0.2,0.8-0.2,1.1-0.1c0.2-0.7,0.5-1.3,0.8-1.9
		c0.4-0.6,0.8-1.1,1.3-1.4c0-0.2,0-0.3,0-0.5c0-0.2,0-0.3,0.1-0.5c-0.5,0.3-0.9,0.5-1.3,0.8C70.8,30.1,70.3,30.5,69.9,30.9">
  </path>
  <path class="st1" d="M66.5,14.9c0.3,0.3,0.6,0.6,0.8,1c0.7,0.2,1.5,0.4,2.1,0.4c0.3,0,0.5,0,0.8-0.1c0.3-0.4,0.6-0.5,1.1-0.5
		c0.7-0.5,1.3-1.2,1.8-1.8c-0.7-0.8-1.4-1.5-2.1-2.1c0.2,0.2,0.4,0.4,0.6,0.6C70.5,13.6,68.5,14.4,66.5,14.9">
  </path>
  <path class="st1" d="M76.6,23.1c-0.4-0.1-0.7-0.2-1.1-0.2c0,0.2-0.1,0.5-0.1,0.7c-0.2,1.1,0.4,2.2,1,3.1
		C76.7,25.5,76.7,24.3,76.6,23.1">
  </path>
  <path class="st1" d="M73.4,24.2C73.4,24.2,73.4,24.2,73.4,24.2c0.1,0.3,0.2,0.5,0.3,0.7c0.2-0.6,0.3-1.1,0.5-1.5
		C74,23.6,73.7,23.8,73.4,24.2">
  </path>
  <path class="st1" d="M68.3,37.1c0.7-0.4,1-0.8,1.1-1.2c-0.6,0.6-1.2,1.2-1.6,1.4C68,37.2,68.2,37.1,68.3,37.1">
  </path>
  <path class="st1" d="M67.3,37.9c-0.1,0.1-0.2,0.2-0.4,0.3c0.1,0,0.2-0.1,0.3-0.1c0.4-0.1,0.9-0.3,1.3-0.5c-0.3,0.1-0.6,0.2-0.9,0.2
		C67.5,37.8,67.4,37.8,67.3,37.9">
  </path>
  <path class="st2" d="M75.5,23.7c0-0.3,0.1-0.5,0.1-0.8c0-0.5,0-0.9,0-1.4c0-0.3-0.1-0.5-0.1-0.7c-0.1-0.6-0.3-1.2-0.6-1.7
		c-0.9-1.9-2.5-3.3-3.6-3.4c-0.5,0-0.8,0.1-1.1,0.5c-0.2,0.3-0.3,0.7-0.3,1.3c0,0.1,0,0.3,0,0.4c0,0,0,0,0,0.1c0.1,1.3,1,1.4,2,1.6
		c0.8,0.1,1.7,0.4,2.2,1.5c0.2,0.4,0.3,0.9,0.3,1.5c0,0.2,0,0.4-0.1,0.7c0,0,0,0.1,0,0.1c-0.1,0.4-0.3,1-0.5,1.5
		c0.4,0.9,0.7,1.7,0.8,2.3c0,0,0,0,0,0c0.1,0.1,0.2,0.2,0.3,0.3c0.1,0.1,0.2,0.2,0.3,0.3c0.3,0.3,0.7,0.5,1,0.5
		c0.1-0.6,0.2-1.1,0.3-1.7C75.8,25.8,75.2,24.8,75.5,23.7">
  </path>
  <path class="st2" d="M74.3,28.9c0-0.3-0.1-0.5-0.1-0.7c-0.6,0.2-1.1,0.5-1.6,0.7c0,0.2,0,0.4-0.1,0.5c0,0.2,0,0.3,0,0.5
		c0.5-0.4,1.1-0.6,1.7-0.5c0,0,0.1,0,0.1,0C74.4,29.2,74.3,29.1,74.3,28.9C74.3,28.9,74.3,28.9,74.3,28.9">
  </path>
  <path class="st2" d="M68.3,37.1c-0.1,0.1-0.3,0.1-0.6,0.2c-0.1,0.1-0.2,0.1-0.3,0.1c0,0,0,0-0.1,0c-0.5,0.1-1.1,0.2-1.7,0.3
		c-0.1,0.4-0.2,0.8-0.3,1.2c0.4-0.2,1-0.4,1.6-0.6c0.1-0.1,0.2-0.3,0.3-0.3c0.1-0.1,0.2-0.1,0.3-0.1c0.3,0,0.6-0.1,0.9-0.2
		c0.4-0.2,0.8-0.4,1.1-0.7c0,0,0.1-0.1,0.1-0.1c0,0,0,0,0,0c0.3-0.3,0.5-0.6,0.5-1.1c0-0.1,0-0.1,0-0.2c0-0.2,0-0.4,0-0.6
		c-0.3,0.3-0.6,0.6-0.9,0.8C69.3,36.2,69,36.6,68.3,37.1">
  </path>
  <path class="st2" d="M69.5,33.2c-0.6,0.3-0.7,0.5-0.7,0.8c0.5-0.2,1.1-0.3,1.6-0.5c0-0.1,0.1-0.3,0.1-0.4C70.3,33,70,33,69.5,33.2">
  </path>
  <path class="st3" d="M74.8,19.1c0.1,0,0.3,0,0.4,0c0.2,0,0.4-0.1,0.6-0.1c0,0,0,0,0,0c0,0,0,0,0-0.1c-0.7-2-1.7-3.7-2.8-5
		c-0.5,0.6-1.1,1.3-1.8,1.8C72.4,15.8,73.9,17.2,74.8,19.1">
  </path>
  <path class="st3" d="M60,15.7c0.1,0.8,1.3,0.7,2.8,0.6c0-0.2,0-0.4,0-0.6C62,15.8,61,15.8,60,15.7">
  </path>
  <path class="st3" d="M69.8,17.9c0-0.1,0-0.2,0-0.4c0-0.6,0.1-1,0.3-1.3c-0.2,0.1-0.5,0.1-0.8,0.1c-0.6,0-1.3-0.1-2.1-0.4
		c0.3,0.4,0.6,0.8,0.9,1.2C68.7,17.4,69.3,17.6,69.8,17.9">
  </path>
  <path class="st3" d="M75.1,27.9c-0.1-0.1-0.2-0.2-0.3-0.3c-0.1-0.1-0.2-0.2-0.3-0.3c0,0,0,0,0,0c0,0,0,0,0,0.1
		c0.1,0.3,0.1,0.5,0.2,0.7c-0.1,0-0.2,0.1-0.3,0.1c-0.1,0-0.2,0.1-0.2,0.1c0,0.2,0.1,0.5,0.1,0.7c0,0,0,0,0,0c0,0.2,0,0.3,0,0.5
		c0,0.2,0,0.4,0,0.6c0,0.5-0.1,1-0.3,1.4c-0.1,0.3-0.3,0.6-0.6,0.9c-0.6,0.5-1.5,0.9-2.5,1.1c-0.1,0-0.1,0-0.2,0
		c-0.1,0-0.3,0.1-0.4,0.1c-0.6,0.1-1.1,0.3-1.6,0.5c-0.1,0-0.1,0-0.2,0.1c-1.4,0.5-2.3,1.2-1.6,2.8c0.1,0.2,0.2,0.3,0.3,0.3
		c0,0,0,0,0.1,0c0.1,0,0.2,0,0.3-0.1c0.4-0.2,1-0.8,1.6-1.4c0.3-0.3,0.6-0.6,0.9-0.8c0.1-0.1,0.3-0.2,0.4-0.3
		c0.1-0.1,0.2-0.1,0.3-0.2c0.1-0.1,0.2-0.1,0.3-0.2c0.6-0.3,1.4-0.5,2.4-0.8c0.1,0,0.1,0,0.2,0c0.6-0.8,1-1.6,1.4-2.3
		c0.1-0.1,0.1-0.3,0.2-0.4c0.1-0.3,0.3-0.6,0.4-0.9c0.1-0.2,0.1-0.3,0.2-0.5c0-0.1,0-0.1,0.1-0.2c0-0.1,0-0.1,0-0.2
		c0.1-0.2,0.1-0.4,0.1-0.7C75.8,28.3,75.5,28.2,75.1,27.9">
  </path>
  <path class="st0" d="M79.5,6.5c1,0.7,1.5,1.6,2,2.4c0.6-0.6,1.2-1.2,1.9-1.7c-0.7-1.4-1.4-2.4-1.8-3C80.8,4.9,80.1,5.7,79.5,6.5">
  </path>
  <path class="st0" d="M75.9,17.5c0.6,0,1.3,0.1,2,0.4c0.1-0.6,0.2-1.2,0.3-1.6c-0.6-0.5-1.3-0.9-2-1.1C76.1,15.9,76,16.7,75.9,17.5">
  </path>
  <path class="st0" d="M76.4,13.7c0.7,0,1.4,0.2,2.1,0.6c0.1-0.5,0.3-1,0.5-1.5c-0.5-0.5-1.3-0.9-2.1-1C76.7,12.3,76.6,13,76.4,13.7">
  </path>
  <path class="st0" d="M83.1,3c0.4,0.6,1.1,1.9,1.1,3.6c1-0.6,1.9-1.1,2.9-1.4c-0.3-1.4-0.7-2.8-1.2-3.7C84.9,2,84,2.5,83.1,3">
  </path>
  <path class="st0" d="M78.5,7.9c-0.4,0.7-0.7,1.4-1,2.1c0.9,0.2,1.6,0.6,2.3,1.1c0.3-0.4,0.5-0.9,0.8-1.3C80,9.2,79.3,8.5,78.5,7.9">
  </path>
  <path class="st0" d="M89.6,0.1c-0.5,0.2-1,0.3-1.6,0.6c0.2,1,0.3,2.7,0.2,4.2c0.9-0.3,1.8-0.5,2.5-0.6c0.9-0.2,1.6-1,1.7-1.9
		C92.4,0.8,91-0.3,89.6,0.1">
  </path>
  <path class="st4" d="M75.8,18.9C75.8,19,75.8,19,75.8,18.9c0.2,0.6,0.3,1.1,0.5,1.7c0.2,0.8,0.3,1.6,0.3,2.5c0.1,1.1,0,2.3-0.1,3.6
		c-0.1,0.5-0.2,1.1-0.3,1.7c0,0.2-0.1,0.4-0.2,0.7c0,0.1,0,0.1,0,0.2c0,0,0-0.1,0-0.1c0.5-1.9,1.1-6,1.6-9.4
		C77,19.3,76.4,19,75.8,18.9C75.8,18.9,75.8,18.9,75.8,18.9">
  </path>
  <path class="st4" d="M74.6,27.2c-0.1-0.6-0.4-1.4-0.8-2.3c-0.1-0.2-0.2-0.5-0.4-0.7c-0.5-1-1.3-2-2.4-3c-2.9-2.7-4.7-3-7.7-3.8
		c-0.2-0.1-0.4-0.1-0.7-0.2h0c5.6,2.1,8.7,7.2,8.8,12.5c0.4-0.3,0.8-0.5,1.3-0.8c0.5-0.3,1-0.5,1.6-0.7c0.1,0,0.1-0.1,0.2-0.1
		c0.1,0,0.2-0.1,0.3-0.1C74.7,27.8,74.7,27.6,74.6,27.2C74.6,27.3,74.6,27.3,74.6,27.2">
  </path>
  <path class="st0" d="M64.2,11.8c0.2,0,0.2-0.3,0-0.3c-0.5-0.1-1.1-0.3-1.3-0.4c-0.2-0.1-0.2-0.4-0.2-0.7c0-0.1-0.1-0.2-0.2-0.1
		c-0.2,0.2-0.4,0.4-0.5,0.5c-0.2,0.2-0.2,0.6,0.1,0.8C62.5,11.8,63.3,11.9,64.2,11.8">
  </path>
  <path class="st0" d="M64.4,10.2c0.6,0.2,1.7,0.1,1.7-0.6c0-0.7-0.8-0.4-0.3-1.4c0.5-0.9,1.6-1,1.6-1s0.6,2,0,2.5
		c-0.7,0.5-0.2,0.9-0.2,0.9s-0.2,0.3,0,0.5c0.7,0.6-0.1,3.8-4.1,4.5c0,0-0.1,0-0.1,0c0.1,0,0.1,0,0.2,0c0.1,0,0.1,0,0.2,0
		c0.5-0.1,1.1-0.2,1.7-0.3c0.4-0.1,0.8-0.2,1.3-0.3c2-0.5,4.1-1.3,5.2-2.6c-0.2-0.2-0.5-0.4-0.6-0.6c-0.1-0.1-0.1-0.1-0.2-0.2
		c-0.4-0.6-0.4-1.5-0.6-2.1c-0.6-1.9-2.2-2.7-3.6-2.7c-1.7,0-2.6,1-2.6,1s0.7,0.3,0.9,0.7c0.2,0.3,0,0.3-0.4,0.5
		c-0.2,0.1-0.6,0.3-0.8,0.7C63.2,10.6,63.8,10.1,64.4,10.2">
  </path>
  <path class="st5" d="M75,43.9c-1.8-1.1-4.4-2.9-6-5c-0.1-0.1-0.2-0.3-0.3-0.4c0,0-0.1-0.1-0.1-0.1c0,0,0,0,0-0.1c0,0,0,0,0,0
		c0.1,0,0.1-0.1,0.2-0.1c1.3-0.8,2.5-1.8,3.4-2.8c0.6-0.6,1.1-1.2,1.5-1.9c-0.1,0-0.1,0-0.2,0c-1,0.2-1.9,0.4-2.4,0.8
		c-0.1,0.1-0.2,0.1-0.3,0.2c-0.1,0.1-0.2,0.1-0.3,0.2c-0.1,0.1-0.3,0.2-0.4,0.3c0,0.2,0,0.4,0,0.6c0,0.1,0,0.1,0,0.2
		c0,0.4-0.2,0.8-0.5,1.1c0,0,0,0,0,0c0,0-0.1,0.1-0.1,0.1c-0.3,0.3-0.7,0.5-1.1,0.7c-0.4,0.2-0.8,0.3-1.3,0.5
		c-0.1,0-0.2,0.1-0.3,0.1c-0.6,0.2-1.2,0.4-1.6,0.6c-0.1,0.6-0.1,1-0.1,1C68,43.1,76.9,45,76.9,45S76.1,44.6,75,43.9">
  </path>
  <path class="st5" d="M75.6,22.9c0.4,0,0.7,0.1,1.1,0.2c-0.1-0.9-0.2-1.7-0.3-2.5c-0.2,0.1-0.4,0.1-0.6,0.2c-0.1,0-0.1,0-0.2,0
		c0.1,0.2,0.1,0.5,0.1,0.7C75.6,22,75.6,22.5,75.6,22.9">
  </path>
  <path class="st5" d="M73.4,24.2C73.4,24.2,73.4,24.2,73.4,24.2c0.3-0.4,0.6-0.7,0.8-0.9c0,0,0-0.1,0-0.1c0.1-0.3,0.1-0.5,0.1-0.7
		c-0.1-0.6-0.2-1.1-0.3-1.5c-0.3,0-0.6,0-1,0c-1.2-0.1-2.3-0.7-3.3-1.8c-0.5-0.7-1-1.3-1.5-1.9c0,0,0-0.1-0.1-0.1
		c-0.3-0.4-0.6-0.8-0.9-1.2c-0.3-0.4-0.6-0.7-0.8-1c-0.4,0.1-0.9,0.2-1.3,0.3c-0.6,0.1-1.2,0.2-1.7,0.3c-0.1,0-0.1,0-0.2,0
		c-0.1,0-0.1,0-0.2,0c0,0,0.1,0,0.1,0c-0.1,0-0.2,0-0.3,0c0,0.2,0,0.4,0,0.6c0,0.3,0.1,0.5,0.3,0.8c0.1,0.1,0.1,0.2,0.2,0.3
		c3,0.8,4.9,1.1,7.7,3.8C72.1,22.2,72.9,23.3,73.4,24.2">
  </path>
  <path class="st5" d="M72.6,29.9c-0.5,0.3-0.9,0.8-1.3,1.4c-0.3,0.5-0.6,1.2-0.8,1.9c0,0.1-0.1,0.3-0.1,0.4c0.1,0,0.3-0.1,0.4-0.1
		c0.1,0,0.1,0,0.2,0c0.9-0.3,1.8-0.6,2.4-1.1c0.3-0.2,0.5-0.6,0.6-0.9c0.2-0.4,0.3-0.9,0.3-1.4c0-0.2,0-0.4,0-0.6c0,0-0.1,0-0.1,0
		C73.7,29.3,73.1,29.5,72.6,29.9">
  </path>
  <path class="st6" d="M14.4,28.8c0.2-0.6,0.3-1.1,0.1-1.4c-0.2-0.4-0.4-0.6-0.7-0.8c-0.3-0.2-0.8-0.3-1.3-0.5L11.8,26
		c-0.4-0.1-0.7-0.2-0.9-0.3c-0.4-0.2-0.6-0.4-0.5-0.8c0.2-0.5,0.8-0.8,1.8-0.8c0.4,0,0.8,0.1,1.3,0.2c0.5,0.1,1.1,0.3,1.6,0.5
		l0.8-1.7c-0.4-0.2-0.9-0.4-1.5-0.5c-0.6-0.1-1.1-0.2-1.6-0.2c-2.4,0-4,0.9-4.7,2.3C8.1,24.9,8,25,8,25.2C7.7,26,7.7,26.6,8.1,27
		c0.4,0.4,1,0.7,1.8,0.9c0.1,0,0.2,0,0.3,0.1c0.5,0.1,0.8,0.2,1,0.2c0.5,0.2,0.8,0.4,0.6,0.8c-0.1,0.3-0.4,0.6-0.9,0.7
		c-0.5,0.1-1.1,0.2-1.6,0.2l-0.3,0c-0.4-0.1-0.8-0.2-1.2-0.3C7.5,29.4,7,29.2,6.5,29l-0.8,1.7c0.1,0,0.1,0.1,0.3,0.1
		c0.3,0.1,0.5,0.3,0.8,0.4c0.5,0.2,1.4,0.4,2.4,0.4C11.8,31.7,13.7,30.6,14.4,28.8">
  </path>
  <polygon class="st5" points="8.4,24.2 9.2,22.6 0,22.6 2.7,24.2 3.6,24.2 0.9,31.5 3.3,31.5 6,24.2 	">
  </polygon>
  <polygon class="st5" points="52.3,23.3 49.2,31.5 51.5,31.5 54.4,24.7 	">
  </polygon>
  <path class="st5" d="M50.2,27.3c0.2-0.5,0.3-0.9,0.4-1.3c0.1-0.3,0.2-0.6,0.2-0.8c0.3-1.7-0.8-2.6-3.3-2.6h-3.9l-0.5,1.7l-2.7,7.2
		l3.8,0c0.7,0,1.4-0.1,2.1-0.2c0.7-0.2,1.3-0.4,1.8-0.8c0.5-0.3,0.9-0.8,1.3-1.3C49.6,28.6,49.9,28,50.2,27.3 M48.3,26
		c-0.1,0.3-0.2,0.6-0.3,0.9l-0.1,0.3c-0.3,0.7-0.5,1.2-0.8,1.6c-0.6,0.7-1.3,1-2.3,1l-1.4,0l2.1-5.5l1.5,0c0.5,0,1,0.1,1.2,0.4
		C48.4,25,48.5,25.4,48.3,26">
  </path>
  <path class="st5" d="M61.3,22.6h-2.1l-7,9h2.3l1.4-1.8l-0.1,0.6l3.5,0l0.1,1.2H62L61.7,30L61.3,22.6z M56.9,28.5l1.8-2.3l0.5-0.9h0
		l-0.1,0.9l0.1,2.3L56.9,28.5z">
  </path>
  <path class="st5" d="M22.1,22.6H20l-7,9h2.3l1.4-1.9l-0.1,0.6l3.5,0l0.1,1.3h2.6L22.5,30L22.1,22.6z M17.7,28.4l1.8-2.3l0.5-0.9h0
		L20,26.1l0.1,2.3L17.7,28.4z">
  </path>
  <path class="st5" d="M39.6,22.6h-2.1l-5.7,7.3l0-0.1c-0.2,0.1-0.6,0.2-0.8,0.2c-0.3,0-0.5-0.1-0.7-0.2c-0.3-0.3-0.4-0.7-0.5-1.6
		c1.5-0.4,2.6-1.4,3.1-2.9c0.7-1.8-0.3-2.7-2.4-2.7h-4.4l-0.5,1.7l-2.7,7.3h2.3l1.2-3.2l1.1,0c0,0.1,0,0.1,0,0.1
		c0,0.7,0,1.3,0.1,1.7c0.1,0.4,0.2,0.8,0.5,1.1c0.3,0.3,0.8,0.4,1.4,0.4c0.3,0,0.6-0.1,0.9-0.2l0,0h2.3l1.4-1.8l-0.1,0.6l3.5,0
		l0.1,1.2h2.6L40,30L39.6,22.6z M28.1,26.7l-1.1,0l0.9-2.4l1.1,0c1.3,0,1.8,0.3,1.4,1.2C30.1,26.4,29.4,26.7,28.1,26.7 M35.1,28.5
		l1.8-2.3l0.5-0.9h0l-0.1,0.9l0.1,2.3L35.1,28.5z">
  </path>
 </g>
</svg>